<?xml version="1.0" encoding="UTF-8" standalone="no"?>
<svg
   xmlns:dc="http://purl.org/dc/elements/1.1/"
   xmlns:cc="http://creativecommons.org/ns#"
   xmlns:rdf="http://www.w3.org/1999/02/22-rdf-syntax-ns#"
   xmlns:svg="http://www.w3.org/2000/svg"
   xmlns="http://www.w3.org/2000/svg"
   xmlns:xlink="http://www.w3.org/1999/xlink"
   xmlns:sodipodi="http://sodipodi.sourceforge.net/DTD/sodipodi-0.dtd"
   xmlns:inkscape="http://www.inkscape.org/namespaces/inkscape"
   inkscape:export-ydpi="23.040001"
   inkscape:export-xdpi="23.040001"
   inkscape:export-filename="/home/genius/AndroidStudioProjects/Bible/app/src/main/res/mipmap-hdpi/back2.png"
   inkscape:version="1.0 (4035a4f, 2020-05-01)"
   sodipodi:docname="css.svg"
   viewBox="0 0 32 32"
   height="32"
   width="32"
   id="svg2"
   version="1.1">
  <metadata
     id="metadata8">
    <rdf:RDF>
      <cc:Work
         rdf:about="">
        <dc:format>image/svg+xml</dc:format>
        <dc:type
           rdf:resource="http://purl.org/dc/dcmitype/StillImage" />
        <dc:title />
      </cc:Work>
    </rdf:RDF>
  </metadata>
  <defs
     id="defs6">
    <linearGradient
       id="linearGradient880"
       inkscape:collect="always">
      <stop
         id="stop876"
         offset="0"
         style="stop-color:#ccd5fd;stop-opacity:1" />
      <stop
         id="stop878"
         offset="1"
         style="stop-color:#5968cc;stop-opacity:1" />
    </linearGradient>
    <filter
       id="filter1046"
       inkscape:label="Drop Shadow"
       style="color-interpolation-filters:sRGB">
      <feFlood
         id="feFlood1036"
         result="flood"
         flood-color="rgb(0,0,0)"
         flood-opacity="0.513726" />
      <feComposite
         id="feComposite1038"
         result="composite1"
         operator="in"
         in2="SourceGraphic"
         in="flood" />
      <feGaussianBlur
         id="feGaussianBlur1040"
         result="blur"
         stdDeviation="10.6"
         in="composite1" />
      <feOffset
         id="feOffset1042"
         result="offset"
         dy="4"
         dx="6" />
      <feComposite
         id="feComposite1044"
         result="composite2"
         operator="over"
         in2="offset"
         in="SourceGraphic" />
    </filter>
    <filter
       id="filter1046-3"
       inkscape:label="Drop Shadow"
       style="color-interpolation-filters:sRGB">
      <feFlood
         id="feFlood1036-6"
         result="flood"
         flood-color="rgb(0,0,0)"
         flood-opacity="0.513726" />
      <feComposite
         id="feComposite1038-7"
         result="composite1"
         operator="in"
         in2="SourceGraphic"
         in="flood" />
      <feGaussianBlur
         id="feGaussianBlur1040-5"
         result="blur"
         stdDeviation="10.6"
         in="composite1" />
      <feOffset
         id="feOffset1042-3"
         result="offset"
         dy="4"
         dx="6" />
      <feComposite
         id="feComposite1044-5"
         result="fbSourceGraphic"
         operator="over"
         in2="offset"
         in="SourceGraphic" />
      <feColorMatrix
         id="feColorMatrix1281"
         values="0 0 0 -1 0 0 0 0 -1 0 0 0 0 -1 0 0 0 0 1 0"
         in="fbSourceGraphic"
         result="fbSourceGraphicAlpha" />
      <feFlood
         in="fbSourceGraphic"
         result="flood"
         flood-color="rgb(255,231,28)"
         flood-opacity="1"
         id="feFlood1283" />
      <feComposite
         result="composite1"
         operator="in"
         in="flood"
         id="feComposite1285"
         in2="fbSourceGraphic" />
      <feGaussianBlur
         result="blur"
         stdDeviation="9"
         in="composite1"
         id="feGaussianBlur1287" />
      <feOffset
         result="offset"
         dy="0"
         dx="0"
         id="feOffset1289" />
      <feComposite
         result="composite2"
         operator="over"
         in="fbSourceGraphic"
         id="feComposite1291"
         in2="offset" />
    </filter>
    <filter
       id="filter1413"
       inkscape:label="Drop Shadow"
       style="color-interpolation-filters:sRGB">
      <feFlood
         id="feFlood1403"
         result="flood"
         flood-color="rgb(255,182,21)"
         flood-opacity="1" />
      <feComposite
         id="feComposite1405"
         result="composite1"
         operator="in"
         in2="SourceGraphic"
         in="flood" />
      <feGaussianBlur
         id="feGaussianBlur1407"
         result="blur"
         stdDeviation="12.3"
         in="composite1" />
      <feOffset
         id="feOffset1409"
         result="offset"
         dy="0"
         dx="0" />
      <feComposite
         id="feComposite1411"
         result="composite2"
         operator="over"
         in2="offset"
         in="SourceGraphic" />
    </filter>
    <filter
       style="color-interpolation-filters:sRGB;"
       inkscape:label="Drop Shadow"
       id="filter1092">
      <feFlood
         flood-opacity="0.407843"
         flood-color="rgb(0,0,0)"
         result="flood"
         id="feFlood1082" />
      <feComposite
         in="flood"
         in2="SourceGraphic"
         operator="out"
         result="composite1"
         id="feComposite1084" />
      <feGaussianBlur
         in="composite1"
         stdDeviation="25.1286"
         result="blur"
         id="feGaussianBlur1086" />
      <feOffset
         dx="0"
         dy="0"
         result="offset"
         id="feOffset1088" />
      <feComposite
         in="offset"
         in2="SourceGraphic"
         operator="atop"
         result="fbSourceGraphic"
         id="feComposite1090" />
      <feColorMatrix
         result="fbSourceGraphicAlpha"
         in="fbSourceGraphic"
         values="0 0 0 -1 0 0 0 0 -1 0 0 0 0 -1 0 0 0 0 1 0"
         id="feColorMatrix1018" />
      <feFlood
         id="feFlood1020"
         flood-opacity="0.992157"
         flood-color="rgb(96,249,255)"
         result="flood"
         in="fbSourceGraphic" />
      <feComposite
         in2="fbSourceGraphic"
         id="feComposite1022"
         in="flood"
         operator="in"
         result="composite1" />
      <feGaussianBlur
         id="feGaussianBlur1024"
         in="composite1"
         stdDeviation="6.23775"
         result="blur" />
      <feOffset
         id="feOffset1026"
         dx="0"
         dy="0"
         result="offset" />
      <feComposite
         in2="offset"
         id="feComposite1028"
         in="fbSourceGraphic"
         operator="over"
         result="composite2" />
    </filter>
    <radialGradient
       gradientUnits="userSpaceOnUse"
       gradientTransform="matrix(0.20744051,0.00329784,-0.00399837,0.25150574,-16.935531,-16.890538)"
       r="90.04615"
       fy="124.67943"
       fx="149.11267"
       cy="124.67943"
       cx="149.11267"
       id="radialGradient884"
       xlink:href="#linearGradient880"
       inkscape:collect="always" />
  </defs>
  <sodipodi:namedview
     inkscape:document-rotation="0"
     inkscape:current-layer="layer2"
     inkscape:window-maximized="1"
     inkscape:window-y="0"
     inkscape:window-x="0"
     inkscape:cy="35.734406"
     inkscape:cx="76.388804"
     inkscape:zoom="7.3192346"
     showgrid="true"
     id="namedview4"
     inkscape:window-height="1024"
     inkscape:window-width="1920"
     inkscape:pageshadow="2"
     inkscape:pageopacity="0"
     guidetolerance="10"
     gridtolerance="10"
     objecttolerance="10"
     borderopacity="1"
     bordercolor="#666666"
     pagecolor="#2e2e2e"
     showguides="false" />
  <g
     inkscape:groupmode="layer"
     id="layer2"
     inkscape:label="Layer 2">
    <path
       id="path947"
       style="fill:url(#radialGradient884);fill-opacity:1;fill-rule:nonzero;stroke:none;stroke-width:0.0517826;stroke-linecap:butt;stroke-linejoin:miter;stroke-miterlimit:4;stroke-dasharray:none;stroke-opacity:1"
       d="m 2.5267827,0.64294922 c 0,0 -1.7276893,0 -1.7276893,1.72768928 V 29.581745 c 0,0 0,1.72769 1.7276893,1.72769 H 17.644064 V 24.8306 c 0,-0.382517 0.118104,-0.631005 0.118104,-0.631013 0,0 -9.2446195,-0.0243 -13.2964591,-0.0243 -0.4403422,0 -0.4626761,-0.452636 -0.00405,-0.471065 5.7421741,0 13.4931861,0.05872 13.4931861,0.05872 0,0 0.510571,-0.850734 1.441878,-0.912436 2.268556,0 6.885787,0.0033 6.885787,0.0033 v -8.048941 l -4.946524,4.410671 h 0.727183 c 0.44728,0 0.41785,0.431922 -0.01147,0.431922 h -1.19656 L 17.9481,22.238992 c 0,0 -2.981999,0.531851 -4.516962,0.943142 -0.630205,0.05575 -0.541434,-0.591871 -0.514259,-0.601991 l 0.983635,-2.932685 H 4.5392707 c -0.4183318,0 -0.4095836,-0.431922 0,-0.431922 h 9.5063403 l 0.388731,-1.010294 3.476299,-3.060237 H 4.5129506 c -0.4051671,0 -0.3951863,-0.431922 0,-0.431922 H 18.445144 L 26.282511,7.8152219 V 2.3706385 c 0,0 0,-1.72768928 -1.72769,-1.72768928 H 12.892918 Z M 4.4552483,5.6947532 H 22.034487 c 0.310112,0 0.32674,0.3694961 0,0.3694961 H 4.4474872 c -0.2630776,0 -0.2670854,-0.3694961 0.00776,-0.3694961 z M 29.739914,6.0369167 c -1.079799,-0.033809 -1.840393,0.8108666 -1.840393,0.8108666 l 2.95698,3.3551587 c 0,0 1.986977,-1.4925687 0.512234,-3.4135356 C 30.787513,6.2491658 30.230731,6.0522842 29.739914,6.0369167 Z m -2.116083,1.0639461 -1.062257,0.9451675 2.941458,3.3524597 1.06597,-0.94618 z M 26.264628,8.2903365 14.916205,18.377072 17.87791,21.704562 29.243878,11.64752 Z m -0.17277,0.9748622 c 0.159885,-0.00373 0.232053,0.2032469 0.05534,0.360385 -1.4971,1.3312623 -1.490103,1.3360963 -2.883082,2.5577893 -0.267462,0.234575 -0.53181,-0.01192 -0.227771,-0.286822 1.573985,-1.423197 1.578215,-1.429503 2.872284,-2.5476674 0.06675,-0.057677 0.129934,-0.08244 0.183229,-0.083685 z M 4.5058643,10.213403 H 22.085103 c 0.310112,0 0.326741,0.369834 0,0.369834 H 4.4981032 c -0.2630775,0 -0.2670849,-0.369834 0.00776,-0.369834 z m 18.0617767,2.162985 c 0.145615,0.0078 0.257377,0.184699 0.10663,0.334741 -0.215799,0.214788 -0.247383,0.241072 -0.577023,0.51662 -0.193447,0.161706 -0.443976,-0.104439 -0.233507,-0.287499 0.115558,-0.100513 0.297943,-0.279279 0.555425,-0.508182 0.04757,-0.04229 0.09993,-0.05826 0.148473,-0.05568 z m -7.859973,6.295269 -1.021093,2.918513 0.819979,0.940106 3.013332,-0.673192 z m -1.154043,3.335924 -0.169732,0.467355 c -0.06504,0.179074 0.03192,0.304191 0.239919,0.25814 l 0.468366,-0.103597 z m 6.144095,1.218832 c -0.774889,0 -1.644004,0.868777 -1.644004,1.643666 0,2.201631 -0.0017,6.396164 -0.0017,6.396164 l 8.03983,-8.03983 z" />
  </g>
  <g
     style="display:inline;opacity:1"
     inkscape:label="Layer 1"
     id="layer1"
     inkscape:groupmode="layer" />
</svg>
